<svg width="23" height="18" viewBox="0 0 23 18" fill="none" xmlns="http://www.w3.org/2000/svg">
<path d="M13.5793 17.9986C13.9414 17.9935 14.2868 17.8472 14.5403 17.5914L22.3103 9.9226C22.8485 9.39472 22.8521 8.53532 22.3182 8.00306C22.3156 8.00043 22.3129 7.99779 22.3103 7.9952L14.5403 0.326405C13.9644 -0.1612 13.0978 -0.0949132 12.6046 0.474488C12.1645 0.982654 12.1645 1.7321 12.6046 2.24022L19.3999 8.95892L12.536 15.6776C12.0037 16.207 12.0037 17.062 12.536 17.5914C12.8093 17.8678 13.1887 18.016 13.5793 17.9986Z" fill="white"/>
<path d="M2.08887 10.3162H21.3079C22.066 10.3162 22.6807 9.70851 22.6807 8.95889C22.6807 8.20927 22.066 7.60156 21.3079 7.60156H2.08887C1.3307 7.60156 0.716068 8.20927 0.716068 8.95889C0.716068 9.70851 1.3307 10.3162 2.08887 10.3162Z" fill="white"/>
</svg>
