<svg width="20" height="20" viewBox="0 0 20 20" fill="none" xmlns="http://www.w3.org/2000/svg">
<g clip-path="url(#clip0_145_4446)">
<path d="M17.075 -0.000223506H2.64506C2.00737 0.000305912 1.39587 0.254139 0.944958 0.70505C0.494048 1.15596 0.240581 1.76734 0.240051 2.40503V16.8351C0.240581 17.4727 0.494048 18.0841 0.944958 18.535C1.39587 18.9859 2.00737 19.2393 2.64506 19.2398H9.85995V12.6269H7.45495V9.6159H9.85995V7.21699C9.85995 6.26022 10.2401 5.34283 10.9166 4.66629C11.5932 3.98976 12.5107 3.6096 13.4675 3.6096H15.8725V6.61617H14.673C14.0093 6.61617 13.4734 6.55429 13.4734 7.21601V9.62078H16.4793L15.2797 12.6278H13.4805V19.2408H17.088C17.7257 19.2403 18.3371 18.9869 18.788 18.536C19.2389 18.0851 19.4925 17.4737 19.493 16.836V2.406C19.4928 2.08911 19.4299 1.77513 19.3082 1.48256C19.1864 1.18998 19.0081 0.924667 18.7835 0.701145C18.5588 0.477622 18.2923 0.300665 17.9991 0.180365C17.706 0.0600664 17.3919 -0.00153909 17.075 -0.000223506Z" fill="white"/>
</g>
<defs>
<clipPath id="clip0_145_4446">
<rect width="19.24" height="19.24" fill="white" transform="translate(0.23999)"/>
</clipPath>
</defs>
</svg>
