<svg width="20" height="20" viewBox="0 0 20 20" fill="none" xmlns="http://www.w3.org/2000/svg">
<g clip-path="url(#clip0_145_4441)">
<path d="M13.2235 -0.000244141H6.00751C4.41298 2.0886e-05 2.88385 0.633725 1.75635 1.76123C0.628843 2.88874 -0.00473986 4.41786 -0.00500488 6.01239V13.2277C-0.00500488 14.8223 0.628419 16.3513 1.75598 17.4788C2.88354 18.6064 4.4129 19.2398 6.00751 19.2398H13.2225C14.0121 19.2398 14.794 19.0846 15.5234 18.7825C16.2529 18.4803 16.9156 18.0371 17.4739 17.4788C18.0322 16.9205 18.4752 16.2579 18.7773 15.5285C19.0795 14.799 19.235 14.0172 19.235 13.2277V6.01239C19.2348 4.41803 18.6013 2.88919 17.4741 1.76172C16.3468 0.634242 14.8179 0.000285877 13.2235 -0.000244141ZM17.4317 13.2277C17.4304 14.3433 16.9866 15.4126 16.1977 16.2015C15.4088 16.9904 14.3392 17.4345 13.2235 17.4359H6.00751C4.89164 17.4348 3.8218 16.9909 3.03267 16.202C2.24354 15.4131 1.79952 14.3435 1.7982 13.2277V6.01239C1.79952 4.89653 2.24354 3.82699 3.03267 3.03804C3.8218 2.2491 4.89164 1.80524 6.00751 1.80418H13.2225C14.3382 1.8055 15.4078 2.24913 16.1968 3.03804C16.9857 3.82696 17.4294 4.8967 17.4307 6.01239L17.4317 13.2277Z" fill="white"/>
<path d="M9.61794 4.81177C8.66661 4.81177 7.73671 5.09394 6.94571 5.62247C6.15471 6.151 5.53816 6.90232 5.17411 7.78124C4.81005 8.66015 4.71482 9.62731 4.90042 10.5604C5.08601 11.4934 5.54407 12.3505 6.21676 13.0232C6.88945 13.6959 7.74656 14.1539 8.67961 14.3395C9.61265 14.5251 10.5798 14.4298 11.4587 14.0657C12.3376 13.7017 13.0888 13.0855 13.6174 12.2945C14.1459 11.5035 14.4279 10.5731 14.4279 9.62178C14.4279 8.34609 13.9212 7.1229 13.0191 6.22085C12.1171 5.3188 10.8936 4.81177 9.61794 4.81177ZM9.61794 12.6279C9.0235 12.6279 8.44237 12.4515 7.9481 12.1212C7.45383 11.791 7.06866 11.3218 6.84114 10.7727C6.61361 10.2235 6.55405 9.61912 6.66994 9.03609C6.78584 8.45305 7.07197 7.91758 7.49223 7.49717C7.91249 7.07677 8.44791 6.79036 9.0309 6.67427C9.61389 6.55818 10.2182 6.61727 10.7675 6.84461C11.3167 7.07196 11.7863 7.45741 12.1167 7.95158C12.447 8.44574 12.6236 9.02636 12.6238 9.6208C12.6227 10.4177 12.3057 11.1818 11.7423 11.7454C11.1789 12.309 10.4149 12.6265 9.61794 12.6279Z" fill="white"/>
<path d="M14.7901 5.09041C15.1441 5.09041 15.4311 4.80343 15.4311 4.44941C15.4311 4.0954 15.1441 3.80841 14.7901 3.80841C14.4361 3.80841 14.1491 4.0954 14.1491 4.44941C14.1491 4.80343 14.4361 5.09041 14.7901 5.09041Z" fill="white"/>
</g>
<defs>
<clipPath id="clip0_145_4441">
<rect width="19.24" height="19.24" fill="white"/>
</clipPath>
</defs>
</svg>
